<svg width="current" height="current" viewBox="0 0 25 24" fill="none" xmlns="http://www.w3.org/2000/svg">
<path d="M12.0052 14.5432H13.3552V12.6674H15.1552V11.2606H13.3552V9.38484H12.0052V11.2606H10.2052V12.6674H12.0052V14.5432ZM5.93018 18.3667V16.9601H7.55715V9.96187C7.55715 8.70058 7.93073 7.58537 8.67788 6.61622C9.42488 5.64708 10.384 5.02722 11.5552 4.75665V4.17235C11.5552 3.84675 11.6645 3.56992 11.883 3.34186C12.1016 3.11395 12.3669 3 12.6791 3C12.9914 3 13.2571 3.11395 13.4762 3.34186C13.6955 3.56992 13.8052 3.84675 13.8052 4.17235V4.75665C14.9764 5.02722 15.9355 5.64708 16.6825 6.61622C17.4296 7.58537 17.8032 8.70058 17.8032 9.96187V16.9601H19.4302V18.3667H5.93018ZM12.6786 21C12.2309 21 11.8481 20.834 11.5302 20.502C11.2122 20.17 11.0532 19.7708 11.0532 19.3046H14.3071C14.3071 19.7724 14.1477 20.1719 13.8288 20.5032C13.5099 20.8344 13.1265 21 12.6786 21ZM8.90715 16.9601H16.4532V9.96187C16.4532 8.87612 16.0849 7.94942 15.3482 7.18177C14.6114 6.41396 13.7221 6.03005 12.6802 6.03005C11.6383 6.03005 10.7489 6.41396 10.0121 7.18177C9.27548 7.94942 8.90715 8.87612 8.90715 9.96187V16.9601Z" fill="current"/>
</svg>
