<svg width="current" height="current" viewBox="0 0 20 20" fill="none" xmlns="http://www.w3.org/2000/svg">
<path d="M14.5 2.94238V0.942383M5.5 2.94238V0.942383M1.25 5.94238H18.75M1 7.98638C1 5.87138 1 4.81338 1.436 4.00538C1.83025 3.28469 2.44199 2.70689 3.184 2.35438C4.04 1.94238 5.16 1.94238 7.4 1.94238H12.6C14.84 1.94238 15.96 1.94238 16.816 2.35438C17.569 2.71638 18.18 3.29438 18.564 4.00438C19 4.81438 19 5.87238 19 7.98738V12.8994C19 15.0144 19 16.0724 18.564 16.8804C18.1698 17.6011 17.558 18.1789 16.816 18.5314C15.96 18.9424 14.84 18.9424 12.6 18.9424H7.4C5.16 18.9424 4.04 18.9424 3.184 18.5304C2.44214 18.1781 1.83041 17.6007 1.436 16.8804C1 16.0704 1 15.0124 1 12.8974V7.98638Z" stroke="#545966" stroke-width="1.5" stroke-linecap="round" stroke-linejoin="round"/>
</svg>
