<svg width="current" height="current" viewBox="0 0 24 24" fill="none" xmlns="http://www.w3.org/2000/svg">
<path d="M18.6478 4.64639C18.843 4.45125 19.1596 4.4512 19.3548 4.64639C19.5499 4.84162 19.5499 5.15819 19.3548 5.35342L12.7073 12.0009L19.3548 18.6483C19.5498 18.8436 19.55 19.1602 19.3548 19.3554C19.1596 19.5503 18.843 19.5503 18.6478 19.3554L12.0003 12.7079L5.35284 19.3554C5.1576 19.5503 4.84097 19.5504 4.64581 19.3554C4.45069 19.1602 4.45089 18.8436 4.64581 18.6483L11.2933 12.0009L4.64581 5.35342C4.45073 5.15821 4.45076 4.84162 4.64581 4.64639C4.84103 4.45116 5.15757 4.45124 5.35284 4.64639L12.0003 11.2938L18.6478 4.64639Z" fill="current"/>
</svg>
