<svg width="current" height="current" viewBox="0 0 24 24" fill="none" xmlns="http://www.w3.org/2000/svg">
<path d="M12.3501 7.97661V13.4766M12.3501 16.7226V16.2226M21.3501 12.3496C21.3501 13.5315 21.1173 14.7018 20.665 15.7938C20.2127 16.8857 19.5498 17.8778 18.7141 18.7136C17.8783 19.5493 16.8862 20.2122 15.7942 20.6645C14.7023 21.1168 13.532 21.3496 12.3501 21.3496C11.1682 21.3496 9.99788 21.1168 8.90595 20.6645C7.81402 20.2122 6.82186 19.5493 5.98614 18.7136C5.15041 17.8778 4.48747 16.8857 4.03518 15.7938C3.58289 14.7018 3.3501 13.5315 3.3501 12.3496C3.3501 9.96266 4.29831 7.67348 5.98614 5.98565C7.67396 4.29782 9.96315 3.34961 12.3501 3.34961C14.737 3.34961 17.0262 4.29782 18.7141 5.98565C20.4019 7.67348 21.3501 9.96266 21.3501 12.3496Z" stroke="#FF2C3D" stroke-width="1.5" stroke-linecap="round" stroke-linejoin="round"/>
</svg>
