<svg width="20" height="20" viewBox="0 0 20 20" fill="none" xmlns="http://www.w3.org/2000/svg">
<path d="M19 10C19 11.1819 18.7672 12.3522 18.3149 13.4442C17.8626 14.5361 17.1997 15.5282 16.364 16.364C15.5282 17.1997 14.5361 17.8626 13.4442 18.3149C12.3522 18.7672 11.1819 19 10 19C8.8181 19 7.64778 18.7672 6.55585 18.3149C5.46392 17.8626 4.47177 17.1997 3.63604 16.364C2.80031 15.5282 2.13738 14.5361 1.68508 13.4442C1.23279 12.3522 1 11.1819 1 10C1 7.61305 1.94821 5.32387 3.63604 3.63604C5.32387 1.94821 7.61305 1 10 1C12.3869 1 14.6761 1.94821 16.364 3.63604C18.0518 5.32387 19 7.61305 19 10Z" stroke="#50D900" stroke-width="1.5" stroke-linecap="round" stroke-linejoin="round"/>
<path d="M6.66699 10.6328L8.17199 12.3538C8.27103 12.4671 8.39437 12.5566 8.53282 12.6157C8.67128 12.6747 8.82126 12.7017 8.97161 12.6947C9.12195 12.6877 9.26877 12.6468 9.40112 12.5751C9.53347 12.5035 9.64794 12.4029 9.73599 12.2808L13.333 7.2998" stroke="#50D900" stroke-width="1.5" stroke-linecap="round" stroke-linejoin="round"/>
</svg>
