<svg width="270" height="23" viewBox="0 0 270 23" fill="none" xmlns="http://www.w3.org/2000/svg">
<path d="M12.94 22.4H0.22V22H6.42V1.2H0.22V0.799998H12.94V1.2H6.82V22H12.94V22.4ZM21.7588 1.12L36.4788 17.68V0.799998H36.8788V22.4H36.4788V18.28L21.3588 1.32C21.3321 1.29333 21.2921 1.26667 21.2388 1.24C21.2121 1.21333 21.1854 1.2 21.1588 1.2C21.1321 1.2 21.1054 1.21333 21.0788 1.24C21.0788 1.26667 21.0788 1.29333 21.0788 1.32V22.4H20.6788V1.24C20.6788 1.08 20.7321 0.96 20.8388 0.879999C20.9454 0.799999 21.0521 0.759998 21.1588 0.759998C21.2654 0.759998 21.3588 0.786665 21.4388 0.84C21.5188 0.893332 21.6254 0.986665 21.7588 1.12ZM58.1959 0.799998V1.2H49.3159C48.1959 1.2 47.3026 1.50667 46.6359 2.12C45.9693 2.73333 45.6359 3.50667 45.6359 4.44V7.72C45.6359 8.65333 45.8226 9.30667 46.1959 9.68C46.5693 10.0533 47.0626 10.2933 47.6759 10.4L56.1159 12.12C56.9159 12.28 57.5693 12.6267 58.0759 13.16C58.6093 13.6933 58.8759 14.6533 58.8759 16.04V18.36C58.8759 19.5333 58.4759 20.5067 57.6759 21.28C56.8759 22.0267 55.7959 22.4 54.4359 22.4H44.4759V22H54.4359C55.6626 22 56.6359 21.6667 57.3559 21C58.1026 20.3067 58.4759 19.4267 58.4759 18.36V16.04C58.4759 14.7867 58.2493 13.9333 57.7959 13.48C57.3693 13 56.7826 12.68 56.0359 12.52L47.5959 10.8C46.9026 10.6667 46.3293 10.4 45.8759 10C45.4493 9.57333 45.2359 8.81333 45.2359 7.72V4.44C45.2359 3.37333 45.6093 2.50666 46.3559 1.84C47.1026 1.14666 48.0893 0.799998 49.3159 0.799998H58.1959ZM78.2916 22.4H65.5716V22H71.7716V1.2H65.5716V0.799998H78.2916V1.2H72.1716V22H78.2916V22.4ZM92.9503 22.4C91.4836 22.4 90.2836 22.3067 89.3503 22.12C88.417 21.9333 87.6836 21.64 87.1503 21.24C86.617 20.8133 86.2436 20.28 86.0303 19.64C85.8436 18.9733 85.7503 18.1733 85.7503 17.24V6.04C85.7503 4.14667 86.177 2.8 87.0303 2C87.8836 1.2 89.5903 0.799998 92.1503 0.799998H99.0703V1.2H92.1503C89.8036 1.2 88.217 1.57333 87.3903 2.32C86.5636 3.04 86.1503 4.28 86.1503 6.04V17.24C86.1503 18.9733 86.6036 20.2 87.5103 20.92C88.4436 21.64 90.257 22 92.9503 22H100.51V14.36H100.91V22.4H92.9503ZM109.471 22.4V0.799998H109.871V11.4H125.231V0.799998H125.631V22.4H125.231V11.8H109.871V22.4H109.471ZM140.662 22.4V1.2H132.462V0.799998H149.262V1.2H141.062V22.4H140.662ZM166.952 22.4H156.192V0.799998H164.312C165.406 0.799998 166.299 0.919998 166.992 1.16C167.686 1.37333 168.219 1.68 168.592 2.08C168.966 2.45333 169.219 2.89333 169.352 3.4C169.486 3.90667 169.552 4.45333 169.552 5.04V7.6C169.552 8.4 169.406 9.13333 169.112 9.8C168.846 10.4667 168.139 10.9467 166.992 11.24C168.086 11.24 168.979 11.36 169.672 11.6C170.366 11.8133 170.899 12.1333 171.272 12.56C171.646 12.96 171.886 13.44 171.992 14C172.126 14.56 172.192 15.1733 172.192 15.84V18.4C172.192 18.9867 172.126 19.5333 171.992 20.04C171.859 20.52 171.606 20.9333 171.232 21.28C170.886 21.6267 170.366 21.9067 169.672 22.12C168.979 22.3067 168.072 22.4 166.952 22.4ZM164.312 1.2H156.592V11.24H164.312C165.406 11.24 166.272 11.1467 166.912 10.96C167.552 10.7467 168.032 10.48 168.352 10.16C168.699 9.81333 168.912 9.42667 168.992 9C169.099 8.54667 169.152 8.08 169.152 7.6V5.04C169.152 3.97333 168.846 3.06667 168.232 2.32C167.619 1.57333 166.312 1.2 164.312 1.2ZM166.992 11.64H156.592V22H166.952C168.952 22 170.259 21.68 170.872 21.04C171.486 20.3733 171.792 19.4933 171.792 18.4V15.84C171.792 14.64 171.486 13.64 170.872 12.84C170.286 12.04 168.992 11.64 166.992 11.64ZM195.777 17.52C195.777 19.12 195.203 20.4267 194.057 21.44C192.91 22.4267 190.777 22.92 187.657 22.92C184.537 22.92 182.417 22.4267 181.297 21.44C180.177 20.4267 179.617 19.12 179.617 17.52V5.72C179.617 4.12 180.177 2.82667 181.297 1.84C182.417 0.826666 184.537 0.319999 187.657 0.319999C190.777 0.319999 192.91 0.826666 194.057 1.84C195.203 2.82667 195.777 4.12 195.777 5.72V17.52ZM180.017 17.52C180.017 19.0133 180.55 20.2267 181.617 21.16C182.683 22.0667 184.697 22.52 187.657 22.52C190.617 22.52 192.643 22.0667 193.737 21.16C194.83 20.2267 195.377 19.0133 195.377 17.52V5.72C195.377 4.22667 194.83 3.02667 193.737 2.12C192.643 1.18667 190.617 0.719999 187.657 0.719999C184.697 0.719999 182.683 1.18667 181.617 2.12C180.55 3.02667 180.017 4.22667 180.017 5.72V17.52ZM204.549 20.6V22.4H204.149V20.6C204.149 20.0133 204.162 19.4667 204.189 18.96C204.242 18.4267 204.429 17.9467 204.749 17.52L209.549 10.96L204.749 4.48C204.455 4.05333 204.282 3.58667 204.229 3.08C204.175 2.54667 204.149 1.98667 204.149 1.4V0.799998H204.549V1.4C204.549 1.96 204.575 2.49333 204.629 3C204.682 3.50666 204.842 3.94666 205.109 4.32L209.909 10.8H214.669L219.309 4.32C219.575 3.94666 219.735 3.50666 219.789 3C219.842 2.49333 219.869 1.96 219.869 1.4V0.799998H220.269V1.4C220.269 1.98667 220.242 2.54667 220.189 3.08C220.135 3.58667 219.962 4.05333 219.669 4.48L214.949 11.04L219.669 17.52C219.962 17.9467 220.135 18.4267 220.189 18.96C220.242 19.4667 220.269 20.0133 220.269 20.6V22.4H219.869V20.6C219.869 20.04 219.842 19.5067 219.789 19C219.735 18.4933 219.575 18.0533 219.309 17.68L214.629 11.2H209.829L205.109 17.68C204.842 18.0267 204.682 18.4667 204.629 19C204.575 19.5067 204.549 20.04 204.549 20.6ZM229.041 20.6V22.4H228.641V20.6C228.641 20.0133 228.654 19.4667 228.681 18.96C228.734 18.4267 228.921 17.9467 229.241 17.52L234.041 10.96L229.241 4.48C228.948 4.05333 228.774 3.58667 228.721 3.08C228.668 2.54667 228.641 1.98667 228.641 1.4V0.799998H229.041V1.4C229.041 1.96 229.068 2.49333 229.121 3C229.174 3.50666 229.334 3.94666 229.601 4.32L234.401 10.8H239.161L243.801 4.32C244.068 3.94666 244.228 3.50666 244.281 3C244.334 2.49333 244.361 1.96 244.361 1.4V0.799998H244.761V1.4C244.761 1.98667 244.734 2.54667 244.681 3.08C244.628 3.58667 244.454 4.05333 244.161 4.48L239.441 11.04L244.161 17.52C244.454 17.9467 244.628 18.4267 244.681 18.96C244.734 19.4667 244.761 20.0133 244.761 20.6V22.4H244.361V20.6C244.361 20.04 244.334 19.5067 244.281 19C244.228 18.4933 244.068 18.0533 243.801 17.68L239.121 11.2H234.321L229.601 17.68C229.334 18.0267 229.174 18.4667 229.121 19C229.068 19.5067 229.041 20.04 229.041 20.6ZM253.533 20.6V22.4H253.133V20.6C253.133 20.0133 253.146 19.4667 253.173 18.96C253.226 18.4267 253.413 17.9467 253.733 17.52L258.533 10.96L253.733 4.48C253.44 4.05333 253.266 3.58667 253.213 3.08C253.16 2.54667 253.133 1.98667 253.133 1.4V0.799998H253.533V1.4C253.533 1.96 253.56 2.49333 253.613 3C253.666 3.50666 253.826 3.94666 254.093 4.32L258.893 10.8H263.653L268.293 4.32C268.56 3.94666 268.72 3.50666 268.773 3C268.826 2.49333 268.853 1.96 268.853 1.4V0.799998H269.253V1.4C269.253 1.98667 269.226 2.54667 269.173 3.08C269.12 3.58667 268.946 4.05333 268.653 4.48L263.933 11.04L268.653 17.52C268.946 17.9467 269.12 18.4267 269.173 18.96C269.226 19.4667 269.253 20.0133 269.253 20.6V22.4H268.853V20.6C268.853 20.04 268.826 19.5067 268.773 19C268.72 18.4933 268.56 18.0533 268.293 17.68L263.613 11.2H258.813L254.093 17.68C253.826 18.0267 253.666 18.4667 253.613 19C253.56 19.5067 253.533 20.04 253.533 20.6Z" fill="#397FFF"/>
</svg>
