<svg width="current" height="current" viewBox="0 0 20 20" fill="none" xmlns="http://www.w3.org/2000/svg">
<path d="M1 7.4C1 5.16 1 4.04 1.436 3.184C1.81949 2.43139 2.43139 1.81949 3.184 1.436C4.04 1 5.16 1 7.4 1H12.6C14.84 1 15.96 1 16.816 1.436C17.5686 1.81949 18.1805 2.43139 18.564 3.184C19 4.04 19 5.16 19 7.4V12.6C19 14.84 19 15.96 18.564 16.816C18.1805 17.5686 17.5686 18.1805 16.816 18.564C15.96 19 14.84 19 12.6 19H7.4C5.16 19 4.04 19 3.184 18.564C2.43139 18.1805 1.81949 17.5686 1.436 16.816C1 15.96 1 14.84 1 12.6V7.4Z" stroke="black" stroke-width="1.5" stroke-linecap="round" stroke-linejoin="round"/>
<path d="M5 18.5V17.2C5.317 11.013 14.683 11.013 15 17.2V18.5M12.5 7.25C12.5 7.91304 12.2366 8.54893 11.7678 9.01777C11.2989 9.48661 10.663 9.75 10 9.75C9.33696 9.75 8.70107 9.48661 8.23223 9.01777C7.76339 8.54893 7.5 7.91304 7.5 7.25C7.5 6.58696 7.76339 5.95107 8.23223 5.48223C8.70107 5.01339 9.33696 4.75 10 4.75C10.663 4.75 11.2989 5.01339 11.7678 5.48223C12.2366 5.95107 12.5 6.58696 12.5 7.25Z" stroke="black" stroke-width="1.5" stroke-linecap="round" stroke-linejoin="round"/>
</svg>
