<svg width="current" height="current" viewBox="0 0 87 48" fill="none" xmlns="http://www.w3.org/2000/svg">
<path d="M36.5493 27.9912V29.1338H24.5376V27.9912H29.8403V25.1348H31.2173V27.9912H36.5493ZM35.436 19.6123V20.7402H31.2319C31.2905 22.5786 33.2388 24.1021 35.9341 24.5049L35.4067 25.5889C33.2168 25.2446 31.3857 24.2046 30.5288 22.6738C29.6719 24.2046 27.8481 25.2446 25.6509 25.5889L25.1235 24.5049C27.8188 24.1021 29.7524 22.5786 29.8257 20.7402H25.6216V19.6123H29.8403V17.8545H31.2173V19.6123H35.436ZM48.4146 17.6201V30.7451H47.0083V17.6201H48.4146ZM44.5034 19.0264C44.5034 22.8643 42.8628 26.2041 38.3657 28.3574L37.6333 27.2295C41.127 25.5669 42.8262 23.2012 43.0972 20.1396H38.2632V19.0264H44.5034ZM60.7485 17.6201V23.1133H62.7261V24.2852H60.7485V30.7451H59.3569V17.6201H60.7485ZM50.3042 27.1709C51.3369 27.1709 52.5381 27.1709 53.7905 27.127V25.7939C52.311 25.5889 51.3442 24.6953 51.3589 23.4209C51.3442 21.9414 52.6187 20.96 54.4937 20.96C56.354 20.96 57.6431 21.9414 57.6577 23.4209C57.6431 24.6953 56.6616 25.5962 55.1821 25.8086V27.0684C56.3467 27.0244 57.5186 26.9292 58.6099 26.7754L58.6978 27.8008C55.856 28.3135 52.7798 28.3281 50.5239 28.3281L50.3042 27.1709ZM58.4194 19.1729V20.2861H50.5532V19.1729H53.7905V17.6494H55.1821V19.1729H58.4194ZM54.4937 22.0439C53.395 22.0439 52.6626 22.5859 52.6626 23.4209C52.6626 24.2559 53.395 24.7686 54.4937 24.7686C55.5923 24.7686 56.3247 24.2559 56.3247 23.4209C56.3247 22.5859 55.5923 22.0439 54.4937 22.0439Z" fill="black"/>
<path d="M24.0542 33.25H62.9458V34.9H24.0542V33.25Z" fill="black"/>
</svg>
