<svg width="current" height="current" viewBox="0 0 20 20" fill="none" xmlns="http://www.w3.org/2000/svg">
<path d="M0.25 10C0.25 4.615 4.615 0.25 10 0.25C15.385 0.25 19.75 4.615 19.75 10C19.75 15.385 15.385 19.75 10 19.75C4.615 19.75 0.25 15.385 0.25 10ZM6.47 6.47C6.32955 6.61063 6.25066 6.80125 6.25066 7C6.25066 7.19875 6.32955 7.38937 6.47 7.53L8.94 10L6.47 12.47C6.39631 12.5387 6.33721 12.6215 6.29622 12.7135C6.25523 12.8055 6.23318 12.9048 6.23141 13.0055C6.22963 13.1062 6.24816 13.2062 6.28588 13.2996C6.3236 13.393 6.37974 13.4778 6.45096 13.549C6.52218 13.6203 6.60701 13.6764 6.7004 13.7141C6.79379 13.7518 6.89382 13.7704 6.99452 13.7686C7.09522 13.7668 7.19454 13.7448 7.28654 13.7038C7.37854 13.6628 7.46134 13.6037 7.53 13.53L10 11.06L12.47 13.53C12.6122 13.6625 12.8002 13.7346 12.9945 13.7312C13.1888 13.7277 13.3742 13.649 13.5116 13.5116C13.649 13.3742 13.7277 13.1888 13.7312 12.9945C13.7346 12.8002 13.6625 12.6122 13.53 12.47L11.06 10L13.53 7.53C13.6625 7.38783 13.7346 7.19978 13.7312 7.00548C13.7277 6.81118 13.649 6.62579 13.5116 6.48838C13.3742 6.35097 13.1888 6.27225 12.9945 6.26882C12.8002 6.2654 12.6122 6.33752 12.47 6.47L10 8.94L7.53 6.47C7.38937 6.32955 7.19875 6.25066 7 6.25066C6.80125 6.25066 6.61063 6.32955 6.47 6.47Z" fill="#A4A8B2"/>
</svg>
