<svg width="current" height="current" viewBox="0 0 25 24" fill="none" xmlns="http://www.w3.org/2000/svg">
<mask id="mask0_349_16522" style="mask-type:alpha" maskUnits="userSpaceOnUse" x="0" y="0" width="25" height="24">
<rect x="0.839844" width="24" height="24" fill="#D9D9D9"/>
</mask>
<g mask="url(#mask0_349_16522)">
<path d="M16.3128 16.527L17.3668 15.473L13.5898 11.696V7H12.0898V12.3038L16.3128 16.527ZM12.8416 21.5C11.5276 21.5 10.2925 21.2507 9.13634 20.752C7.98018 20.2533 6.97451 19.5766 6.11934 18.7218C5.26418 17.8669 4.58709 16.8617 4.08809 15.706C3.58926 14.5503 3.33984 13.3156 3.33984 12.0017C3.33984 10.6877 3.58918 9.45267 4.08784 8.2965C4.58651 7.14033 5.26326 6.13467 6.11809 5.2795C6.97293 4.42433 7.97818 3.74725 9.13384 3.24825C10.2895 2.74942 11.5243 2.5 12.8381 2.5C14.1521 2.5 15.3872 2.74933 16.5433 3.248C17.6995 3.74667 18.7052 4.42342 19.5603 5.27825C20.4155 6.13308 21.0926 7.13833 21.5916 8.294C22.0904 9.44967 22.3398 10.6844 22.3398 11.9983C22.3398 13.3123 22.0905 14.5473 21.5918 15.7035C21.0932 16.8597 20.4164 17.8653 19.5616 18.7205C18.7068 19.5757 17.7015 20.2528 16.5458 20.7518C15.3902 21.2506 14.1554 21.5 12.8416 21.5ZM12.8398 20C15.0565 20 16.944 19.2208 18.5023 17.6625C20.0607 16.1042 20.8398 14.2167 20.8398 12C20.8398 9.78333 20.0607 7.89583 18.5023 6.3375C16.944 4.77917 15.0565 4 12.8398 4C10.6232 4 8.73568 4.77917 7.17734 6.3375C5.61901 7.89583 4.83984 9.78333 4.83984 12C4.83984 14.2167 5.61901 16.1042 7.17734 17.6625C8.73568 19.2208 10.6232 20 12.8398 20Z" fill="#090E1D"/>
</g>
</svg>
