<svg width="current" height="current" viewBox="0 0 24 24" fill="none" xmlns="http://www.w3.org/2000/svg">
<path d="M14.3334 12C14.3334 11.4106 14.0992 10.8454 13.6825 10.4286C13.2657 10.0119 12.7005 9.77777 12.1111 9.77777C11.5218 9.77777 10.9565 10.0119 10.5398 10.4286C10.123 10.8454 9.8889 11.4106 9.8889 12C9.8889 12.5894 10.123 13.1546 10.5398 13.5713C10.9565 13.9881 11.5218 14.2222 12.1111 14.2222C12.7005 14.2222 13.2657 13.9881 13.6825 13.5713C14.0992 13.1546 14.3334 12.5894 14.3334 12Z" stroke="current" stroke-width="1.5" stroke-linecap="round" stroke-linejoin="round"/>
<path d="M10.3335 5.68011C10.3335 6.95567 8.73172 7.93256 7.60105 7.273C5.58238 6.18589 4.04905 9.17967 5.83216 10.3806C6.92016 11.0152 6.92105 12.9406 5.83216 13.5761C3.90949 14.7415 5.66416 17.7183 7.60105 16.6748C8.82683 15.9601 10.3344 17.1299 10.3344 18.4135C10.3344 20.5566 13.8722 20.5015 13.8722 18.4135C13.8722 17.1059 15.3566 15.9468 16.6046 16.6748C18.5957 17.7477 20.3095 14.6197 18.3735 13.5761C17.2837 12.9406 17.2846 11.0072 18.3735 10.3726C20.2962 9.20722 18.5424 6.23033 16.6046 7.273C15.4997 7.91833 13.8731 6.95033 13.8722 5.68011C13.8722 3.40455 10.3344 3.47566 10.3344 5.68011" stroke="current" stroke-width="1.5" stroke-linecap="round" stroke-linejoin="round"/>
</svg>
