<svg width="current" height="current" viewBox="0 0 25 24" fill="none" xmlns="http://www.w3.org/2000/svg">
<mask id="mask0_308_13411" style="mask-type:alpha" maskUnits="userSpaceOnUse" x="0" y="0" width="25" height="24">
<rect x="0.680176" width="24" height="24" fill="#D9D9D9"/>
</mask>
<g mask="url(#mask0_308_13411)">
<path d="M21.7783 18.3538L19.1341 15.7L20.1783 14.6558L22.8323 17.3L21.7783 18.3538ZM18.3803 6.5365L17.3361 5.49225L19.9803 2.848L21.0341 3.89225L18.3803 6.5365ZM6.98032 6.54625L4.33607 3.89225L5.38032 2.848L8.03407 5.49225L6.98032 6.54625ZM3.57257 18.3538L2.52832 17.3L5.17257 14.6558L6.22657 15.7L3.57257 18.3538ZM9.08807 17.354L12.6803 15.1943L16.2823 17.3885L15.3418 13.298L18.5016 10.5712L14.3418 10.198L12.6803 6.3365L11.0283 10.173L6.86882 10.5365L10.0283 13.298L9.08807 17.354ZM6.81307 20.5L8.36107 13.85L3.18032 9.3655L10.0151 8.77875L12.6803 2.5L15.3553 8.77875L22.1898 9.3655L17.0091 13.85L18.5573 20.5L12.6803 16.9672L6.81307 20.5Z" fill="current"/>
</g>
</svg>
