<svg width="64" height="70" viewBox="0 0 64 70" fill="none" xmlns="http://www.w3.org/2000/svg">
<path d="M58.6254 23.9743C58.6253 21.1155 57.0888 18.4739 54.5944 17.0445L36.031 6.40659C33.5366 4.97722 30.4634 4.97722 27.969 6.40659L9.40559 17.0445C6.91124 18.4739 5.37465 21.1155 5.37462 23.9743V45.2502C5.37465 48.1089 6.91124 50.7506 9.40559 52.1799L27.969 62.8179C30.4634 64.2472 33.5366 64.2472 36.031 62.8179L54.5944 52.1799C57.0888 50.7506 58.6253 48.1089 58.6254 45.2502V23.9743ZM64 45.2502L63.9982 45.4731C63.9196 50.1518 61.3741 54.4547 57.2817 56.7998L38.7183 67.4377L38.5228 67.5476C34.4666 69.7834 29.5334 69.7834 25.4772 67.5476L25.2817 67.4377L6.71828 56.7998C2.62595 54.4547 0.0803807 50.1518 0.00183703 45.4731L0 45.2502V23.9743C3.07596e-05 19.2841 2.48157 14.9446 6.5246 12.5377L6.71828 12.4247L25.2817 1.78674C29.439 -0.59558 34.561 -0.59558 38.7183 1.78674L57.2817 12.4247C61.439 14.807 64 19.2097 64 23.9743V45.2502Z" fill="#397FFF"/>
</svg>
