<svg width="64" height="69.22" viewBox="0 0 76 83" fill="currentColor" xmlns="http://www.w3.org/2000/svg">
<path d="M48.8571 26.6226C48.8571 26.6226 49.3278 31.0584 51.1612 32.9095C52.9945 34.7606 57.3878 35.2359 57.3878 35.2359C57.3878 35.2359 52.9945 35.7111 51.1612 37.5622C49.3278 39.4133 48.8571 43.8491 48.8571 43.8491C48.8571 43.8491 48.3865 39.4133 46.5531 37.5622C44.7197 35.7111 40.3265 35.2359 40.3265 35.2359C40.3265 35.2359 44.7197 34.7606 46.5531 32.9095C48.3865 31.0584 48.8571 26.6226 48.8571 26.6226Z" fill="currentColor"/>
<path d="M25.4241 36.2214C25.4357 34.3035 27.4477 33.073 29.1365 33.951L38.7813 38.9653C39.6341 39.4087 40.1679 40.2984 40.162 41.2669L40.0936 52.6188C40.082 54.5365 38.0703 55.767 36.3815 54.8893L26.7367 49.8767C25.8837 49.4333 25.3498 48.5435 25.3556 47.5748L25.4241 36.2214Z" fill="currentColor"/>
<path d="M9.0198 28.4121C9.03137 26.4942 11.0434 25.2637 12.7322 26.1417L22.4449 31.1913C23.2977 31.6347 23.8315 32.5244 23.8256 33.493L23.7567 44.9238C23.7451 46.8415 21.7334 48.072 20.0446 47.1943L10.3319 42.1464C9.47886 41.703 8.94499 40.8132 8.95084 39.8445L9.0198 28.4121Z" fill="currentColor"/>
<path d="M69.6176 28.7451C69.6176 25.3175 67.7929 22.1502 64.8309 20.4363L42.7868 7.68148C39.8247 5.96767 36.1753 5.96767 33.2132 7.68148L11.1691 20.4363C8.2071 22.1502 6.3824 25.3175 6.38236 28.7451V54.2549C6.3824 57.6825 8.2071 60.8498 11.1691 62.5636L33.2132 75.3185C36.1753 77.0323 39.8247 77.0323 42.7868 75.3185L64.8309 62.5636C67.7929 60.8498 69.6176 57.6825 69.6176 54.2549V28.7451ZM76 54.2549L75.9978 54.5222C75.9045 60.1319 72.8817 65.291 68.022 68.1028L45.978 80.8577L45.7458 80.9895C40.9291 83.6702 35.0709 83.6702 30.2542 80.9895L30.022 80.8577L7.97796 68.1028C3.11831 65.291 0.095452 60.1319 0.00218147 54.5222L0 54.2549V28.7451C3.6527e-05 23.1215 2.94686 17.9185 7.74797 15.0327L7.97796 14.8972L30.022 2.1423C34.9588 -0.714099 41.0412 -0.714099 45.978 2.1423L68.022 14.8972C72.9588 17.7536 76 23.0323 76 28.7451V54.2549Z" fill="currentColor"/>
</svg>
