<svg width="current" height="current" viewBox="0 0 25 24" fill="none" xmlns="http://www.w3.org/2000/svg">
<mask id="mask0_363_16440" style="mask-type:alpha" maskUnits="userSpaceOnUse" x="0" y="0" width="25" height="24">
<rect x="0.52002" width="24" height="24" fill="#D9D9D9"/>
</mask>
<g mask="url(#mask0_363_16440)">
<path d="M7.82777 20.5002C7.3291 20.5002 6.9031 20.3236 6.54977 19.9705C6.1966 19.6171 6.02002 19.1911 6.02002 18.6925V6.00022H5.02002V4.50022H9.52002V3.61572H15.52V4.50022H20.02V6.00022H19.02V18.6925C19.02 19.1976 18.845 19.6252 18.495 19.9752C18.145 20.3252 17.7174 20.5002 17.2123 20.5002H7.82777ZM17.52 6.00022H7.52002V18.6925C7.52002 18.7823 7.54885 18.8561 7.60652 18.9137C7.66419 18.9714 7.73794 19.0002 7.82777 19.0002H17.2123C17.2893 19.0002 17.3598 18.9681 17.4238 18.904C17.4879 18.84 17.52 18.7695 17.52 18.6925V6.00022ZM9.92402 17.0002H11.4238V8.00022H9.92402V17.0002ZM13.6163 17.0002H15.116V8.00022H13.6163V17.0002Z" fill="current"/>
</g>
</svg>
