<svg width="49" height="48" viewBox="0 0 49 48" fill="none" xmlns="http://www.w3.org/2000/svg">
<rect x="0.5" width="48" height="48" rx="24" fill="#FF2C3D" fill-opacity="0.1"/>
<path d="M21.083 16.507C22.038 15.159 23.082 14.25 24.5 14.25C25.918 14.25 26.962 15.16 27.917 16.507C28.865 17.845 29.87 19.825 31.157 22.359L31.547 23.128C32.612 25.226 33.451 26.878 33.891 28.204C34.339 29.552 34.441 30.756 33.77 31.827C33.1 32.893 31.969 33.338 30.55 33.546C29.152 33.75 27.278 33.75 24.894 33.75H24.106C21.722 33.75 19.848 33.75 18.45 33.546C17.031 33.338 15.9 32.893 15.23 31.826C14.559 30.756 14.661 29.552 15.11 28.204C15.55 26.879 16.388 25.226 17.454 23.128L17.844 22.36C19.13 19.825 20.133 17.845 21.083 16.507ZM25.25 20.5C25.25 20.3011 25.171 20.1103 25.0304 19.9697C24.8897 19.829 24.6989 19.75 24.5 19.75C24.3011 19.75 24.1104 19.829 23.9697 19.9697C23.829 20.1103 23.75 20.3011 23.75 20.5V26C23.75 26.1989 23.829 26.3897 23.9697 26.5303C24.1104 26.671 24.3011 26.75 24.5 26.75C24.6989 26.75 24.8897 26.671 25.0304 26.5303C25.171 26.3897 25.25 26.1989 25.25 26V20.5ZM25.25 28.747C25.25 28.5481 25.171 28.3573 25.0304 28.2167C24.8897 28.076 24.6989 27.997 24.5 27.997C24.3011 27.997 24.1104 28.076 23.9697 28.2167C23.829 28.3573 23.75 28.5481 23.75 28.747V29.247C23.75 29.4459 23.829 29.6367 23.9697 29.7773C24.1104 29.918 24.3011 29.997 24.5 29.997C24.6989 29.997 24.8897 29.918 25.0304 29.7773C25.171 29.6367 25.25 29.4459 25.25 29.247V28.747Z" fill="#FF2C3D"/>
</svg>
