<svg width="18" height="16" viewBox="0 0 18 16" fill="none" xmlns="http://www.w3.org/2000/svg">
<path fill-rule="evenodd" clip-rule="evenodd" d="M12.5 0C13.7095 0 14.7186 0.85886 14.9502 2H18V3H14.9502C14.7186 4.14114 13.7095 5 12.5 5C11.2424 5 10.204 4.07116 10.0283 2.8623C10.035 2.90851 10.0406 2.95465 10.0498 3H0V2H10.0498C10.2814 0.85886 11.2905 0 12.5 0ZM12.5 1C11.6716 1 11 1.67157 11 2.5C11 3.32843 11.6716 4 12.5 4C13.3284 4 14 3.32843 14 2.5C14 1.67157 13.3284 1 12.5 1Z" fill="#090E1D"/>
<path fill-rule="evenodd" clip-rule="evenodd" d="M5.5 11C4.29051 11 3.28142 11.8589 3.0498 13H0V14H3.0498C3.28142 15.1411 4.29051 16 5.5 16C6.75755 16 7.79603 15.0712 7.97168 13.8623C7.96499 13.9085 7.9594 13.9547 7.9502 14H18V13H7.9502C7.71858 11.8589 6.70949 11 5.5 11ZM5.5 12C6.32843 12 7 12.6716 7 13.5C7 14.3284 6.32843 15 5.5 15C4.67157 15 4 14.3284 4 13.5C4 12.6716 4.67157 12 5.5 12Z" fill="#090E1D"/>
</svg>
