<svg width="40" height="45" viewBox="0 0 40 40" fill="currentColor" xmlns="http://www.w3.org/2000/svg">
<rect width="40" height="40" rx="20" fill="#F2F3F7"/>
<path fill-rule="evenodd" clip-rule="evenodd" d="M23.5 12C24.7095 12 25.7186 12.8589 25.9502 14H29V15H25.9502C25.7186 16.1411 24.7095 17 23.5 17C22.2424 17 21.204 16.0712 21.0283 14.8623C21.035 14.9085 21.0406 14.9547 21.0498 15H11V14H21.0498C21.2814 12.8589 22.2905 12 23.5 12ZM23.5 13C22.6716 13 22 13.6716 22 14.5C22 15.3284 22.6716 16 23.5 16C24.3284 16 25 15.3284 25 14.5C25 13.6716 24.3284 13 23.5 13Z" fill="black"/>
<path fill-rule="evenodd" clip-rule="evenodd" d="M16.5 23C15.2905 23 14.2814 23.8589 14.0498 25H11V26H14.0498C14.2814 27.1411 15.2905 28 16.5 28C17.7576 28 18.796 27.0712 18.9717 25.8623C18.965 25.9085 18.9594 25.9547 18.9502 26H29V25H18.9502C18.7186 23.8589 17.7095 23 16.5 23ZM16.5 24C17.3284 24 18 24.6716 18 25.5C18 26.3284 17.3284 27 16.5 27C15.6716 27 15 26.3284 15 25.5C15 24.6716 15.6716 24 16.5 24Z" fill="black"/>
</svg>
