<svg width="20" height="20" viewBox="0 0 20 20" fill="none" xmlns="http://www.w3.org/2000/svg">
<path d="M9.99999 19.5C7.54899 19.5 5.42215 18.6913 3.61949 17.074C1.81682 15.4567 0.793654 13.432 0.549988 11H2.07499C2.31865 13.0167 3.19557 14.6875 4.70574 16.0125C6.21607 17.3375 7.98082 18 9.99999 18C12.2333 18 14.125 17.225 15.675 15.675C17.225 14.125 18 12.2333 18 10C18 7.76667 17.225 5.875 15.675 4.325C14.125 2.775 12.2333 2 9.99999 2C8.49615 2 7.11249 2.38625 5.84899 3.15875C4.58549 3.93108 3.61149 4.99033 2.92699 6.3365H5.88449V7.8365H0.757738C1.26024 5.68267 2.37207 3.9215 4.09324 2.553C5.8144 1.18433 7.78332 0.5 9.99999 0.5C11.3142 0.5 12.5492 0.749333 13.705 1.248C14.8608 1.74667 15.8662 2.42342 16.7212 3.27825C17.5762 4.13308 18.2531 5.13833 18.7517 6.294C19.2506 7.44967 19.5 8.68442 19.5 9.99825C19.5 11.3123 19.2506 12.5473 18.7517 13.7035C18.2531 14.8597 17.5762 15.8653 16.7212 16.7205C15.8662 17.5757 14.8608 18.2528 13.705 18.7518C12.5492 19.2506 11.3142 19.5 9.99999 19.5ZM12.723 13.777L9.24999 10.3025V5.3655H10.75V9.69625L13.7672 12.723L12.723 13.777Z" fill="#090E1D"/>
</svg>
